# xmcd
#
# Track frame offsets:
#	150
#	12597
#	27230
#	31725
#	36672
#	47001
#	60900
#	68496
#	83469
#	94385
#	98281
#	119142
#	131792
#	144062
#	154680
#
# Disc length: 2097 seconds
# Revision: 0
# Processed by: cddbd v1.5.2PL0 Copyright (c) Steve Scherf et al.
# Submitted via: dBpowerAMP V12.0
#
DISCID=b9082f0f
DTITLE=Angry Johnny and GTO - In The Nuthouse Now
DYEAR=2010
DGENRE=Country
TTITLE0=Daddy Got Bit By A Rabid Possum
TTITLE1=He's In The Nuthouse Now
TTITLE2=2x4
TTITLE3=When The Police Come
TTITLE4=Diggin Holes
TTITLE5=Grandma Jones
TTITLE6=Drinkin Daddy's Beer
TTITLE7=Kittens
TTITLE8=Pull My Finger
TTITLE9=Bully Down The Street
TTITLE10=Knoxville Girl
TTITLE11=Poor Little Raccoon
TTITLE12=Wendell
TTITLE13=When I Get Big
TTITLE14=My Uncle
EXTD=
EXTT0=
EXTT1=
EXTT2=
EXTT3=
EXTT4=
EXTT5=
EXTT6=
EXTT7=
EXTT8=
EXTT9=
EXTT10=
EXTT11=
EXTT12=
EXTT13=
EXTT14=
PLAYORDER=
